<?xml version="1.0" standalone="no"?>
<!DOCTYPE svg PUBLIC "-//W3C//DTD SVG 20010904//EN"
 "http://www.w3.org/TR/2001/REC-SVG-20010904/DTD/svg10.dtd">
<svg version="1.0" xmlns="http://www.w3.org/2000/svg"
 width="32.000000pt" height="32.000000pt" viewBox="0 0 32.000000 32.000000"
 preserveAspectRatio="xMidYMid meet">

<g transform="translate(0.000000,32.000000) scale(0.100000,-0.100000)"
fill="#ffb600" stroke="none">
<path d="M6 261 c-3 -5 30 -32 74 -61 l80 -53 80 53 c44 29 77 56 74 61 -3 5
-72 9 -154 9 -82 0 -151 -4 -154 -9z"/>
<path d="M0 160 l0 -69 50 31 c28 17 50 34 50 37 0 3 -23 21 -50 39 l-50 32 0
-70z"/>
<path d="M268 197 c-26 -18 -48 -35 -48 -38 0 -3 23 -20 50 -37 l50 -31 0 69
c0 39 -1 70 -2 69 -2 0 -24 -15 -50 -32z"/>
<path d="M57 102 c-31 -19 -54 -39 -51 -43 7 -12 301 -12 308 0 3 4 -18 23
-47 41 -76 48 -135 49 -210 2z"/>
</g>
</svg>
