<?xml version="1.0" standalone="no"?>
<!DOCTYPE svg PUBLIC "-//W3C//DTD SVG 20010904//EN"
 "http://www.w3.org/TR/2001/REC-SVG-20010904/DTD/svg10.dtd">
<svg version="1.0" xmlns="http://www.w3.org/2000/svg"
 width="32.000000pt" height="32.000000pt" viewBox="0 0 32.000000 32.000000"
 preserveAspectRatio="xMidYMid meet">

<g transform="translate(0.000000,32.000000) scale(0.100000,-0.100000)"
fill="#ffb600" stroke="none">
<path d="M16 304 c-23 -23 -23 -265 0 -288 23 -23 265 -23 288 0 23 23 23 265
0 288 -23 23 -265 23 -288 0z m279 -144 l0 -135 -135 0 -135 0 -3 124 c-1 69
0 131 2 138 4 11 35 13 138 11 l133 -3 0 -135z"/>
<path d="M237 274 c-4 -4 -7 -16 -7 -26 0 -14 6 -19 23 -16 14 2 22 10 22 23
0 20 -25 32 -38 19z"/>
<path d="M102 217 c-50 -53 -13 -137 59 -137 47 0 79 34 79 81 0 71 -90 107
-138 56z m102 -13 c20 -20 20 -68 0 -88 -20 -20 -68 -20 -88 0 -9 8 -16 28
-16 44 0 36 24 60 60 60 16 0 36 -7 44 -16z"/>
</g>
</svg>
