<?xml version="1.0" standalone="no"?>
<!DOCTYPE svg PUBLIC "-//W3C//DTD SVG 20010904//EN"
 "http://www.w3.org/TR/2001/REC-SVG-20010904/DTD/svg10.dtd">
<svg version="1.0" xmlns="http://www.w3.org/2000/svg"
 width="32.000000pt" height="32.000000pt" viewBox="0 0 32.000000 32.000000"
 preserveAspectRatio="xMidYMid meet">

<g transform="translate(0.000000,32.000000) scale(0.100000,-0.100000)"
fill="#ffb600" stroke="none">
<path d="M16 304 c-23 -23 -23 -265 0 -288 23 -23 265 -23 288 0 23 23 23 265
0 288 -23 23 -265 23 -288 0z m279 -144 l0 -135 -135 0 -135 0 -3 124 c-1 69
0 131 2 138 4 11 35 13 138 11 l133 -3 0 -135z"/>
<path d="M60 235 c0 -20 5 -25 25 -25 20 0 25 5 25 25 0 20 -5 25 -25 25 -20
0 -25 -5 -25 -25z"/>
<path d="M60 125 c0 -63 1 -65 25 -65 24 0 25 2 25 65 0 63 -1 65 -25 65 -24
0 -25 -2 -25 -65z m27 -22 c-2 -16 -4 -5 -4 22 0 28 2 40 4 28 2 -13 2 -35 0
-50z"/>
<path d="M130 125 l0 -65 30 0 c28 0 30 3 30 35 0 19 5 35 10 35 6 0 10 -16
10 -35 0 -31 3 -35 25 -35 23 0 25 3 25 49 0 60 -22 81 -87 81 l-43 0 0 -65z
m98 32 c6 -5 12 -26 11 -46 l0 -36 -12 35 c-16 48 -51 49 -55 3 -5 -49 -22
-40 -22 10 0 42 1 44 33 44 17 0 38 -4 45 -10z"/>
</g>
</svg>
